<?xml version="1.0" standalone="no"?>
<!DOCTYPE svg PUBLIC "-//W3C//DTD SVG 20010904//EN"
 "http://www.w3.org/TR/2001/REC-SVG-20010904/DTD/svg10.dtd">
<svg version="1.0" xmlns="http://www.w3.org/2000/svg"
 width="512.000000pt" height="512.000000pt" viewBox="0 0 512.000000 512.000000"
 preserveAspectRatio="xMidYMid meet">

<g transform="translate(0.000000,512.000000) scale(0.100000,-0.100000)"
fill="#9B774C" stroke="none">
<path d="M1870 4954 c-109 -29 -199 -106 -248 -212 -24 -50 -27 -69 -27 -162
0 -94 3 -111 28 -164 15 -33 43 -79 63 -103 l35 -43 -138 0 c-131 0 -141 -1
-198 -28 -67 -32 -117 -83 -149 -151 -19 -42 -21 -64 -21 -241 0 -187 1 -197
25 -245 33 -67 99 -130 163 -153 l52 -20 5 -476 c5 -433 7 -477 22 -496 21
-24 75 -27 104 -6 18 14 19 34 24 493 l5 478 1138 3 1137 2 0 -500 c0 -420 2
-506 15 -529 24 -48 81 -56 120 -16 l25 24 0 513 0 514 44 12 c60 16 146 96
177 164 23 50 24 65 24 238 0 179 -1 187 -26 241 -33 70 -87 124 -153 155 -46
21 -65 24 -183 24 -73 0 -133 3 -133 6 0 4 14 22 31 42 18 20 44 61 58 92 23
48 26 67 26 160 -1 130 -23 194 -96 275 -129 140 -327 164 -489 58 -71 -47
-238 -210 -408 -398 -74 -82 -142 -158 -151 -168 -16 -17 -26 -8 -185 168
-283 312 -409 421 -521 450 -72 18 -123 18 -195 -1z m221 -179 c78 -53 490
-477 477 -490 -6 -6 -292 11 -428 25 -151 17 -248 39 -290 66 -127 84 -144
272 -33 376 46 44 90 59 164 55 54 -2 74 -8 110 -32z m1548 16 c146 -75 171
-295 45 -399 -46 -38 -116 -58 -274 -76 -101 -12 -411 -36 -469 -36 -36 0 429
474 499 508 58 29 146 30 199 3z m-1149 -936 l0 -265 -512 0 c-486 0 -515 1
-542 19 -61 40 -66 60 -66 242 0 156 1 168 23 199 12 18 38 41 57 51 32 18 67
19 537 19 l503 0 0 -265z m370 0 l0 -265 -105 0 -105 0 0 265 0 265 105 0 105
0 0 -265z m1200 244 c68 -39 80 -74 80 -248 0 -167 -6 -189 -60 -235 l-32 -26
-514 0 -514 0 0 265 0 265 501 0 c492 0 502 0 539 -21z"/>
<path d="M2205 2530 c-133 -19 -195 -43 -517 -202 -279 -138 -329 -166 -339
-190 -16 -38 3 -82 43 -99 29 -12 44 -5 336 139 169 83 339 161 377 173 97 29
265 36 365 15 104 -22 486 -163 537 -198 44 -30 90 -89 114 -148 19 -48 18
-175 -3 -222 l-16 -36 -397 134 c-218 74 -409 134 -425 134 -33 0 -70 -40 -70
-76 0 -53 27 -65 478 -218 238 -80 439 -146 448 -146 8 0 306 146 662 324 356
178 670 331 697 341 68 23 193 24 269 1 104 -31 146 -102 94 -160 -28 -29
-1418 -878 -1503 -917 -140 -63 -289 -93 -530 -105 -219 -11 -450 21 -650 89
-202 68 -388 43 -388 -53 0 -46 44 -84 87 -76 108 20 129 18 244 -18 146 -46
223 -64 352 -81 137 -19 403 -19 560 0 238 28 350 70 618 232 651 393 1291
788 1316 811 89 84 89 257 0 346 -60 60 -201 106 -327 106 -150 0 -177 -11
-779 -311 -307 -154 -560 -279 -562 -279 -2 0 -5 44 -8 98 -3 87 -7 105 -40
175 -44 91 -119 172 -196 211 -80 40 -455 175 -535 192 -91 19 -234 25 -312
14z"/>
<path d="M872 2179 c-52 -10 -748 -312 -774 -336 -10 -9 -18 -29 -18 -45 0
-16 154 -376 353 -825 322 -728 355 -797 381 -808 18 -8 39 -10 55 -5 14 5
181 78 371 163 274 123 355 164 394 198 83 73 122 194 97 295 -11 42 -465
1074 -526 1194 -63 125 -202 196 -333 169z m124 -169 c23 -12 49 -31 57 -43 7
-12 129 -282 270 -600 269 -605 276 -622 243 -685 -8 -15 -25 -37 -38 -48 -24
-22 -636 -300 -643 -292 -14 14 -622 1404 -617 1410 6 5 560 251 612 271 31
11 75 6 116 -13z"/>
</g>
</svg>
